<?xml version="1.0" encoding="UTF-8" standalone="no"?>
<svg
   xmlns:svg="http://www.w3.org/2000/svg"
   xmlns="http://www.w3.org/2000/svg"
   id="svg4365"
   version="1.1"
   viewBox="0 0 17.049749 18.081619"
   height="18.081619mm"
   width="17.049749mm">
  <defs
     id="defs4359" />
  <g
     transform="translate(-126.03465,-189.68538)"
     id="layer1">
    <path
       id="path4040"
       style="fill:#444142;fill-opacity:1;fill-rule:nonzero;stroke:none;stroke-width:0.03527778"
       d="m 139.08425,205.23759 c -0.073,0 -0.133,0.0395 -0.16192,0.10618 -0.0293,0.0663 -0.0166,0.13723 0.0328,0.1905 l 0.91122,0.97614 c 0.0335,0.036 0.0804,0.0564 0.12912,0.0564 h 2.00448 c 0.0727,0 0.13335,-0.0402 0.16193,-0.10725 0.0289,-0.0674 0.0159,-0.13899 -0.0349,-0.19155 l -0.93557,-0.97614 c -0.0328,-0.0346 -0.079,-0.0543 -0.127,-0.0543 z m 2.91571,1.50565 h -2.00448 c -0.0974,0 -0.19121,-0.0409 -0.25788,-0.11218 l -0.91123,-0.97614 c -0.0974,-0.10442 -0.12277,-0.25047 -0.066,-0.38135 0.0568,-0.13123 0.18062,-0.21237 0.32385,-0.21237 h 1.98014 c 0.096,0 0.18909,0.0399 0.25471,0.10936 l 0.93557,0.97543 c 0.0995,0.10407 0.12594,0.25082 0.0695,0.38276 -0.0564,0.13229 -0.18063,0.21449 -0.32421,0.21449" />
    <path
       id="path4042"
       style="fill:#444142;fill-opacity:1;fill-rule:nonzero;stroke:none;stroke-width:0.03527778"
       d="m 142.7295,190.61177 c -0.0445,0 -0.0882,0.018 -0.12241,0.0522 l -0.97649,0.97649 c -0.0332,0.0335 -0.0515,0.0776 -0.0515,0.12489 v 12.8979 c 0,0.0473 0.0183,0.0914 0.0515,0.12489 l 0.97649,0.97613 c 0.0519,0.0522 0.12418,0.0667 0.19226,0.0384 0.0681,-0.0286 0.10866,-0.0892 0.10866,-0.16298 v -14.85088 c 0,-0.0737 -0.0406,-0.13476 -0.10866,-0.16299 -0.0233,-0.01 -0.0466,-0.0141 -0.0699,-0.0141 z m 0,15.38182 c -0.0907,0 -0.17885,-0.0363 -0.24729,-0.10442 l -0.97614,-0.97649 c -0.0667,-0.0663 -0.10336,-0.15522 -0.10336,-0.24942 v -12.8979 c 0,-0.0942 0.0367,-0.1831 0.10336,-0.24942 l 0.97614,-0.97649 c 0.1023,-0.10265 0.24906,-0.13264 0.38453,-0.0765 0.1344,0.0554 0.21766,0.18062 0.21766,0.32597 v 14.85088 c 0,0.14535 -0.0832,0.27023 -0.21766,0.32562 -0.0452,0.0187 -0.0917,0.0282 -0.13724,0.0282" />
    <path
       id="path4044"
       style="fill:#444142;fill-opacity:1;fill-rule:nonzero;stroke:none;stroke-width:0.03527778"
       d="m 127.13779,189.86177 c -0.0737,0 -0.13441,0.0406 -0.16264,0.10901 -0.0286,0.0681 -0.0141,0.1397 0.0381,0.19226 l 0.97614,0.97614 c 0.0335,0.0335 0.0776,0.0519 0.12488,0.0519 h 12.89086 c 0.0466,0 0.0921,-0.0191 0.12453,-0.0519 l 0.97613,-0.97614 c 0.0522,-0.0526 0.0663,-0.12418 0.0381,-0.19226 -0.0282,-0.0684 -0.0892,-0.10901 -0.16298,-0.10901 z m 13.86734,1.50565 h -12.89086 c -0.0942,0 -0.18309,-0.037 -0.24941,-0.10336 l -0.97649,-0.97649 c -0.10266,-0.10301 -0.13194,-0.25047 -0.0762,-0.38488 0.0557,-0.13406 0.18027,-0.21731 0.32562,-0.21731 h 14.84312 c 0.1457,0 0.27058,0.0832 0.32597,0.21766 0.0557,0.13441 0.0265,0.28152 -0.0765,0.38453 l -0.97579,0.97649 c -0.066,0.0656 -0.15663,0.10336 -0.24941,0.10336" />
    <path
       id="path4046"
       style="fill:#444142;fill-opacity:1;fill-rule:nonzero;stroke:none;stroke-width:0.03527778"
       d="m 126.38954,190.61177 c -0.0229,0 -0.0466,0.005 -0.0695,0.0141 -0.0681,0.0282 -0.10901,0.0893 -0.10901,0.16299 v 14.85088 c 0,0.0737 0.0409,0.13441 0.10901,0.16299 0.0677,0.0282 0.1397,0.0138 0.19226,-0.0385 l 0.97614,-0.97614 c 0.0335,-0.0335 0.0519,-0.0776 0.0519,-0.12488 V 191.7653 c 0,-0.0473 -0.0183,-0.0914 -0.0519,-0.12489 l -0.97614,-0.97649 c -0.0346,-0.0342 -0.078,-0.0522 -0.12277,-0.0522 z m 0,15.38182 c -0.0455,0 -0.0921,-0.01 -0.13723,-0.0282 -0.13405,-0.0554 -0.21766,-0.18027 -0.21766,-0.32562 v -14.85088 c 0,-0.14535 0.0836,-0.27058 0.21766,-0.32597 0.13512,-0.0561 0.28187,-0.0261 0.38453,0.0765 l 0.97649,0.97649 c 0.0663,0.0663 0.10336,0.15522 0.10336,0.24942 v 12.8979 c 0,0.0942 -0.037,0.1831 -0.10336,0.24942 l -0.97649,0.97649 c -0.0681,0.0681 -0.15628,0.10442 -0.2473,0.10442" />
    <path
       id="path4048"
       style="fill:#444142;fill-opacity:1;fill-rule:nonzero;stroke:none;stroke-width:0.03527778"
       d="m 128.11427,205.23759 c -0.0473,0 -0.0914,0.0183 -0.12488,0.0515 l -0.97614,0.97649 c -0.0522,0.0522 -0.0667,0.12417 -0.0381,0.19226 0.0279,0.0681 0.0889,0.10901 0.16264,0.10901 h 9.37401 c 0.0691,0 0.12841,-0.0374 0.15875,-0.0995 0.0303,-0.0617 0.0229,-0.13159 -0.0198,-0.18592 l -0.76447,-0.97649 c -0.0332,-0.0423 -0.085,-0.0674 -0.13864,-0.0674 z m 8.39753,1.50565 h -9.37401 c -0.14535,0 -0.26988,-0.0836 -0.32597,-0.21801 -0.0554,-0.13406 -0.0261,-0.28152 0.0765,-0.38418 l 0.97649,-0.97649 c 0.0663,-0.0663 0.15522,-0.10336 0.24941,-0.10336 h 7.63341 c 0.10866,0 0.2099,0.0494 0.27764,0.13476 l 0.76482,0.97649 c 0.0836,0.10724 0.0984,0.24976 0.0388,0.37253 -0.0596,0.12241 -0.18098,0.19826 -0.31715,0.19826" />
    <path
       id="path4050"
       style="fill:#444142;fill-opacity:1;fill-rule:nonzero;stroke:none;stroke-width:0.03527778"
       d="m 137.65621,205.22136 h -0.002 l -0.72461,0.009 c -0.0706,7.1e-4 -0.12982,0.0399 -0.15875,0.10407 -0.0286,0.0646 -0.0183,0.13476 0.0279,0.18803 l 1.74237,2.00519 c 0.0335,0.0388 0.0822,0.0607 0.133,0.061 l 0.73413,0.002 h 3.4e-4 c 0.0716,0 0.13124,-0.0384 0.16052,-0.10301 0.0296,-0.0649 0.0194,-0.13547 -0.0272,-0.18874 l -1.75223,-2.01653 c -0.0335,-0.0388 -0.0822,-0.061 -0.1337,-0.061 z m 1.7526,2.54564 h -10e-4 l -0.73413,-0.002 c -0.10196,-3.4e-4 -0.19826,-0.0448 -0.26529,-0.12171 l -1.74237,-2.00519 c -0.0914,-0.10512 -0.11254,-0.2487 -0.0557,-0.3757 0.0568,-0.12665 0.1785,-0.20673 0.31715,-0.2085 l 0.72531,-0.009 c 0.001,0 0.002,0 0.002,0 0.10407,0 0.20143,0.0441 0.26811,0.12171 l 1.75224,2.01648 c 0.0921,0.10513 0.11325,0.25047 0.055,0.37783 -0.0582,0.127 -0.18132,0.20602 -0.32138,0.20602" />
    <path
       id="path4052"
       style="fill:#8d198f;fill-opacity:1;fill-rule:nonzero;stroke:none;stroke-width:0.03527778"
       d="m 132.18215,198.0381 v -1.07986 c 0,-0.23001 0.18698,-0.41733 0.41734,-0.41733 0.22966,0 0.41663,0.18732 0.41663,0.41733 v 1.07986 c 0,0.23001 -0.18697,0.41698 -0.41663,0.41698 -0.23036,0 -0.41734,-0.18697 -0.41734,-0.41698" />
    <path
       id="path4054"
       style="fill:#00adef;fill-opacity:1;fill-rule:nonzero;stroke:none;stroke-width:0.03527778"
       d="m 134.50237,196.54091 c -0.23742,0 -0.43038,0.19332 -0.43038,0.43074 v 0.0279 c 0,0.23742 0.19296,0.43074 0.43038,0.43074 0.23742,0 0.43075,-0.19332 0.43075,-0.43074 v -0.0279 c 0,-0.23742 -0.19333,-0.43074 -0.43075,-0.43074" />
    <path
       id="path4056"
       style="fill:#ec008c;fill-opacity:1;fill-rule:nonzero;stroke:none;stroke-width:0.03527778"
       d="m 138.48206,199.44145 c 0.22966,0 0.41628,-0.18662 0.41628,-0.41628 v -0.0568 c 0,-0.2293 -0.18662,-0.41592 -0.41628,-0.41592 h -0.0289 c -0.22931,0 -0.41592,0.18662 -0.41592,0.41592 v 0.0568 c 0,0.22966 0.18661,0.41628 0.41592,0.41628 h 0.0289" />
    <path
       id="path4058"
       style="fill:#00adef;fill-opacity:1;fill-rule:nonzero;stroke:none;stroke-width:0.03527778"
       d="m 137.48299,201.52954 h -0.0293 c -0.2293,0 -0.41592,0.18662 -0.41592,0.41628 v 0.0568 c 0,0.2293 0.18662,0.41627 0.41592,0.41627 h 0.0293 c 0.22966,0 0.41593,-0.18697 0.41593,-0.41627 v -0.0568 c 0,-0.22966 -0.18627,-0.41628 -0.41593,-0.41628" />
    <path
       id="path4060"
       style="fill:#80cc28;fill-opacity:1;fill-rule:nonzero;stroke:none;stroke-width:0.03527778"
       d="m 138.03721,201.94582 v 0.0568 c 0,0.2293 0.18662,0.41627 0.41592,0.41627 h 0.0289 c 0.22966,0 0.41628,-0.18697 0.41628,-0.41627 v -0.0568 c 0,-0.22966 -0.18662,-0.41628 -0.41628,-0.41628 h -0.0289 c -0.2293,0 -0.41592,0.18662 -0.41592,0.41628" />
    <path
       id="path4062"
       style="fill:#40b93c;fill-opacity:1;fill-rule:nonzero;stroke:none;stroke-width:0.03527778"
       d="m 138.03721,200.01542 c 0,0.2293 0.18662,0.41592 0.41592,0.41592 h 0.0289 c 0.22966,0 0.41628,-0.18662 0.41628,-0.41592 v -0.0572 c 0,-0.22931 -0.18662,-0.41593 -0.41628,-0.41593 h -0.0289 c -0.2293,0 -0.41592,0.18662 -0.41592,0.41593 v 0.0572" />
    <path
       id="path4064"
       style="fill:#ef2e32;fill-opacity:1;fill-rule:nonzero;stroke:none;stroke-width:0.03527778"
       d="m 136.89174,198.96837 c 0,-0.2293 -0.18662,-0.41592 -0.41593,-0.41592 h -0.0293 c -0.2293,0 -0.41627,0.18662 -0.41627,0.41592 v 0.0568 c 0,0.22966 0.18697,0.41628 0.41627,0.41628 h 0.0293 c 0.22931,0 0.41593,-0.18662 0.41593,-0.41628 v -0.0568" />
    <path
       id="path4066"
       style="fill:#ef2e32;fill-opacity:1;fill-rule:nonzero;stroke:none;stroke-width:0.03527778"
       d="m 131.63747,196.54091 c -0.23742,0 -0.43075,0.19332 -0.43075,0.43074 v 0.0279 c 0,0.23742 0.19333,0.43074 0.43075,0.43074 0.23742,0 0.43074,-0.19332 0.43074,-0.43074 v -0.0279 c 0,-0.23742 -0.19332,-0.43074 -0.43074,-0.43074" />
    <path
       id="path4068"
       style="fill:#ef2e32;fill-opacity:1;fill-rule:nonzero;stroke:none;stroke-width:0.03527778"
       d="m 130.63558,194.31735 c 0,-0.16827 0.13687,-0.30515 0.3048,-0.30515 h 1.3462 c 0.16792,0 0.3048,0.13688 0.3048,0.30515 v 1.34585 c 0,0.16827 -0.13688,0.3048 -0.3048,0.3048 h -1.3462 c -0.16793,0 -0.3048,-0.13653 -0.3048,-0.3048 z m -0.21908,2.08633 h 2.39395 c 0.11924,0 0.21625,-0.0974 0.21625,-0.21625 v -2.39431 c 0,-0.11888 -0.097,-0.21625 -0.21625,-0.21625 h -2.39395 c -0.11924,0 -0.21625,0.0974 -0.21625,0.21625 v 2.39431 c 0,0.11888 0.097,0.21625 0.21625,0.21625" />
    <path
       id="path4070"
       style="fill:#8d198f;fill-opacity:1;fill-rule:nonzero;stroke:none;stroke-width:0.03527778"
       d="m 131.61348,195.47058 c 0.26493,0 0.48048,-0.21555 0.48048,-0.48048 0,-0.26494 -0.21555,-0.48013 -0.48048,-0.48013 -0.26494,0 -0.48049,0.21519 -0.48049,0.48013 0,0.26493 0.21555,0.48048 0.48049,0.48048" />
    <path
       id="path4072"
       style="fill:#80cc28;fill-opacity:1;fill-rule:nonzero;stroke:none;stroke-width:0.03527778"
       d="m 132.59314,201.67841 c 0,0.16792 -0.13688,0.30445 -0.3048,0.30445 h -1.3462 c -0.16792,0 -0.3048,-0.13653 -0.3048,-0.30445 v -1.34585 c 0,-0.16827 0.13688,-0.30515 0.3048,-0.30515 h 1.3462 c 0.16792,0 0.3048,0.13688 0.3048,0.30515 z m 0.21908,-2.08633 h -2.39395 c -0.11924,0 -0.21626,0.097 -0.21626,0.21626 v 2.39359 c 0,0.1196 0.097,0.21696 0.21626,0.21696 h 2.39395 c 0.11923,0 0.21625,-0.0974 0.21625,-0.21696 v -2.39359 c 0,-0.11924 -0.097,-0.21626 -0.21625,-0.21626" />
    <path
       id="path4074"
       style="fill:#00adef;fill-opacity:1;fill-rule:nonzero;stroke:none;stroke-width:0.03527778"
       d="m 131.61524,200.52483 c -0.26494,0 -0.48048,0.21555 -0.48048,0.48048 0,0.26494 0.21554,0.48048 0.48048,0.48048 0.26494,0 0.48048,-0.21554 0.48048,-0.48048 0,-0.26493 -0.21554,-0.48048 -0.48048,-0.48048" />
    <path
       id="path4076"
       style="fill:#ec008c;fill-opacity:1;fill-rule:nonzero;stroke:none;stroke-width:0.03527778"
       d="m 138.44608,195.6632 c 0,0.16792 -0.13688,0.30444 -0.30445,0.30444 h -1.3462 c -0.16792,0 -0.3048,-0.13652 -0.3048,-0.30444 v -1.34585 c 0,-0.16827 0.13688,-0.30515 0.3048,-0.30515 h 1.3462 c 0.16757,0 0.30445,0.13688 0.30445,0.30515 z m 0.21907,-2.08633 h -2.3936 c -0.11923,0 -0.2166,0.0974 -0.2166,0.21625 v 2.39395 c 0,0.11924 0.0974,0.21661 0.2166,0.21661 h 2.3936 c 0.11959,0 0.21661,-0.0974 0.21661,-0.21661 v -2.39395 c 0,-0.11888 -0.097,-0.21625 -0.21661,-0.21625" />
    <path
       id="path4078"
       style="fill:#40b93c;fill-opacity:1;fill-rule:nonzero;stroke:none;stroke-width:0.03527778"
       d="m 137.46818,194.50997 c -0.26494,0 -0.48013,0.21519 -0.48013,0.48013 0,0.26493 0.21519,0.48048 0.48013,0.48048 0.26493,0 0.48083,-0.21555 0.48083,-0.48048 0,-0.26494 -0.2159,-0.48013 -0.48083,-0.48013" />
    <path
       id="path4080"
       style="fill:#40b93c;fill-opacity:1;fill-rule:nonzero;stroke:none;stroke-width:0.03527778"
       d="m 137.48299,197.43026 c 0.22966,0 0.41593,-0.18662 0.41593,-0.41628 v -0.0568 c 0,-0.22931 -0.18627,-0.41628 -0.41593,-0.41628 h -0.0293 c -0.2293,0 -0.41592,0.18697 -0.41592,0.41628 v 0.0568 c 0,0.22966 0.18662,0.41628 0.41592,0.41628 h 0.0293" />
    <path
       id="path4082"
       style="fill:#ef2e32;fill-opacity:1;fill-rule:nonzero;stroke:none;stroke-width:0.03527778"
       d="m 136.89174,196.95719 c 0,-0.22931 -0.18662,-0.41628 -0.41593,-0.41628 h -0.0293 c -0.2293,0 -0.41627,0.18697 -0.41627,0.41628 v 0.0568 c 0,0.22966 0.18697,0.41628 0.41627,0.41628 h 0.0293 c 0.22931,0 0.41593,-0.18662 0.41593,-0.41628 v -0.0568" />
    <path
       id="path4084"
       style="fill:#8d198f;fill-opacity:1;fill-rule:nonzero;stroke:none;stroke-width:0.03527778"
       d="m 137.04414,200.94922 c 0,0.23001 0.18732,0.41698 0.41698,0.41698 h 1.02023 c 0.23002,0 0.41699,-0.18697 0.41699,-0.41698 0,-0.23001 -0.18697,-0.41698 -0.41699,-0.41698 h -1.02023 c -0.22966,0 -0.41698,0.18697 -0.41698,0.41698" />
    <path
       id="path4086"
       style="fill:#ef2e32;fill-opacity:1;fill-rule:nonzero;stroke:none;stroke-width:0.03527778"
       d="m 136.44759,200.56434 c -0.23001,0 -0.41734,0.18697 -0.41734,0.41698 v 1.02024 c 0,0.23001 0.18733,0.41733 0.41734,0.41733 0.23001,0 0.41698,-0.18732 0.41698,-0.41733 v -1.02024 c 0,-0.23001 -0.18697,-0.41698 -0.41698,-0.41698" />
    <path
       id="path4088"
       style="fill:#80cc28;fill-opacity:1;fill-rule:nonzero;stroke:none;stroke-width:0.03527778"
       d="m 136.89174,197.95837 c 0,-0.22931 -0.18662,-0.41628 -0.41593,-0.41628 h -0.0293 c -0.2293,0 -0.41627,0.18697 -0.41627,0.41628 v 0.0568 c 0,0.22966 0.18697,0.41627 0.41627,0.41627 h 0.0293 c 0.22931,0 0.41593,-0.18661 0.41593,-0.41627 v -0.0568" />
    <path
       id="path4090"
       style="fill:#40b93c;fill-opacity:1;fill-rule:nonzero;stroke:none;stroke-width:0.03527778"
       d="m 134.49814,199.52364 c -0.23001,0 -0.41698,0.18698 -0.41698,0.41699 v 2.06093 c 0,0.23001 0.18697,0.41733 0.41698,0.41733 0.23001,0 0.41698,-0.18732 0.41698,-0.41733 v -2.06093 c 0,-0.23001 -0.18697,-0.41699 -0.41698,-0.41699" />
    <path
       id="path4092"
       style="fill:#40b93c;fill-opacity:1;fill-rule:nonzero;stroke:none;stroke-width:0.03527778"
       d="m 135.52155,194.57311 h -1.96533 c -0.23001,0 -0.41698,0.18733 -0.41698,0.41699 0,0.23001 0.18697,0.41733 0.41698,0.41733 h 1.96533 c 0.23001,0 0.41698,-0.18732 0.41698,-0.41733 0,-0.22966 -0.18697,-0.41699 -0.41698,-0.41699" />
    <path
       id="path4094"
       style="fill:#40b93c;fill-opacity:1;fill-rule:nonzero;stroke:none;stroke-width:0.03527778"
       d="m 136.44653,199.54234 c -0.2293,0 -0.41628,0.18662 -0.41628,0.41593 v 0.0572 c 0,0.2293 0.18698,0.41592 0.41628,0.41592 h 0.0293 c 0.22931,0 0.41593,-0.18662 0.41593,-0.41592 v -0.0572 c 0,-0.22931 -0.18662,-0.41593 -0.41593,-0.41593 h -0.0293" />
    <path
       id="path4096"
       style="fill:#8d198f;fill-opacity:1;fill-rule:nonzero;stroke:none;stroke-width:0.03527778"
       d="m 137.03779,198.01517 c 0,0.22966 0.18662,0.41627 0.41592,0.41627 h 0.0293 c 0.22966,0 0.41593,-0.18661 0.41593,-0.41627 v -0.0568 c 0,-0.22931 -0.18627,-0.41628 -0.41593,-0.41628 h -0.0293 c -0.2293,0 -0.41592,0.18697 -0.41592,0.41628 v 0.0568" />
    <path
       id="path4098"
       style="fill:#00adef;fill-opacity:1;fill-rule:nonzero;stroke:none;stroke-width:0.03527778"
       d="m 137.89892,200.01542 v -0.0572 c 0,-0.22931 -0.18627,-0.41593 -0.41593,-0.41593 h -0.0293 c -0.2293,0 -0.41592,0.18662 -0.41592,0.41593 v 0.0572 c 0,0.2293 0.18662,0.41592 0.41592,0.41592 h 0.0293 c 0.22966,0 0.41593,-0.18662 0.41593,-0.41592" />
    <path
       id="path4100"
       style="fill:#ec008c;fill-opacity:1;fill-rule:nonzero;stroke:none;stroke-width:0.03527778"
       d="m 132.16875,199.03822 c 0,0.22931 0.18627,0.41593 0.41592,0.41593 h 0.0293 c 0.2293,0 0.41592,-0.18662 0.41592,-0.41593 v -0.0572 c 0,-0.2293 -0.18662,-0.41592 -0.41592,-0.41592 h -0.0293 c -0.22965,0 -0.41592,0.18662 -0.41592,0.41592 v 0.0572" />
  </g>
</svg>
