<?xml version="1.0" encoding="UTF-8" standalone="no"?>
<svg
        xmlns="http://www.w3.org/2000/svg"
        id="svg4365"
        version="1.1"
        viewBox="0 0 17.049749 18.081619"
        height="18.081619mm"
        width="17.049749mm">
    <defs
            id="defs4359"/>
    <g
            transform="translate(-126.0624,-189.9063)"
            id="layer1">
        <path
                id="path4258"
                style="fill:#ffffff;fill-opacity:1;fill-rule:nonzero;stroke:none;stroke-width:0.03527778"
                d="m 139.11165,205.45816 c -0.0727,0 -0.13264,0.0395 -0.16157,0.10618 -0.0293,0.0663 -0.0166,0.13723 0.0328,0.1905 l 0.91122,0.97614 c 0.0332,0.036 0.0804,0.0561 0.12912,0.0561 h 2.00448 c 0.073,0 0.13335,-0.0399 0.16228,-0.10689 0.0286,-0.0674 0.0155,-0.13864 -0.0353,-0.19121 l -0.93557,-0.97649 c -0.0332,-0.0342 -0.0794,-0.0543 -0.127,-0.0543 z m 2.91606,1.5053 h -2.00448 c -0.0977,0 -0.19156,-0.0409 -0.25824,-0.11219 l -0.91087,-0.97613 c -0.0974,-0.10407 -0.12276,-0.25012 -0.066,-0.38135 0.0568,-0.13088 0.18062,-0.21202 0.3235,-0.21202 h 1.98049 c 0.0952,0 0.18803,0.0395 0.25436,0.10865 l 0.93592,0.97649 c 0.0991,0.10372 0.12594,0.25012 0.0695,0.38241 -0.0561,0.13229 -0.18062,0.21414 -0.3242,0.21414"/>
        <path
                id="path4260"
                style="fill:#ffffff;fill-opacity:1;fill-rule:nonzero;stroke:none;stroke-width:0.03527778"
                d="m 142.63484,205.98521 c 0.0519,0.0519 0.12418,0.0663 0.19227,0.0377 0.0681,-0.0282 0.10865,-0.0889 0.10865,-0.16228 V 191.0094 c 0,-0.0737 -0.0406,-0.13477 -0.10865,-0.16299 -0.0681,-0.0282 -0.14006,-0.0138 -0.19227,0.0381 l -0.97649,0.97649 c -0.0332,0.0335 -0.0515,0.0776 -0.0515,0.12453 v 12.89862 c 0,0.0466 0.0187,0.0921 0.0515,0.12453 z m 0.12242,0.2286 c -0.0907,0 -0.17851,-0.0356 -0.2473,-0.10372 l -0.97614,-0.97649 c -0.066,-0.066 -0.10336,-0.15663 -0.10336,-0.24941 v -12.89862 c 0,-0.0938 0.0367,-0.18274 0.10336,-0.24941 l 0.97614,-0.97614 c 0.10195,-0.10266 0.24871,-0.13264 0.38453,-0.0765 0.1344,0.0554 0.21766,0.18062 0.21766,0.32597 v 14.85123 c 0,0.14535 -0.0833,0.26988 -0.21731,0.32527 -0.0452,0.019 -0.0917,0.0279 -0.13758,0.0279"/>
        <path
                id="path4262"
                style="fill:#ffffff;fill-opacity:1;fill-rule:nonzero;stroke:none;stroke-width:0.03527778"
                d="m 127.16554,190.08269 c -0.0737,0 -0.13477,0.0406 -0.16299,0.10865 -0.0282,0.0684 -0.0138,0.14006 0.0385,0.19227 l 0.97613,0.97613 c 0.0335,0.0335 0.0776,0.0515 0.12488,0.0515 h 12.89086 c 0.0466,0 0.0921,-0.0187 0.12453,-0.0515 l 0.97613,-0.97613 c 0.0522,-0.0522 0.0663,-0.12383 0.0381,-0.19227 -0.0282,-0.0681 -0.0892,-0.10865 -0.16298,-0.10865 z m 13.86734,1.50495 h -12.89086 c -0.0942,0 -0.18309,-0.0367 -0.24941,-0.10301 l -0.97649,-0.97614 c -0.10266,-0.10266 -0.13229,-0.25012 -0.0765,-0.38453 0.0557,-0.1344 0.18062,-0.21766 0.32597,-0.21766 h 14.84312 c 0.1457,0 0.27058,0.0833 0.32597,0.21766 0.0557,0.13441 0.0265,0.28152 -0.0766,0.38453 l -0.97578,0.97614 c -0.066,0.0656 -0.15663,0.10301 -0.24941,0.10301"/>
        <path
                id="path4264"
                style="fill:#ffffff;fill-opacity:1;fill-rule:nonzero;stroke:none;stroke-width:0.03527778"
                d="m 126.41729,190.83234 c -0.0229,0 -0.0466,0.005 -0.0695,0.0141 -0.0684,0.0282 -0.10901,0.0893 -0.10901,0.16299 v 14.85123 c 0,0.0734 0.0406,0.13406 0.10901,0.16228 0.0684,0.0289 0.14005,0.0145 0.19226,-0.0377 l 0.97614,-0.97649 c 0.0328,-0.0325 0.0519,-0.078 0.0519,-0.12453 V 191.9856 c 0,-0.0469 -0.0183,-0.091 -0.0519,-0.12453 l -0.97614,-0.97649 c -0.0346,-0.0342 -0.078,-0.0522 -0.12277,-0.0522 z m 0,15.38147 c -0.0459,0 -0.0924,-0.009 -0.13758,-0.0279 -0.1337,-0.0554 -0.21731,-0.17992 -0.21731,-0.32527 v -14.85123 c 0,-0.14535 0.0836,-0.27058 0.21766,-0.32597 0.13547,-0.0561 0.28223,-0.0261 0.38453,0.0765 l 0.97649,0.97614 c 0.0663,0.0667 0.10336,0.15557 0.10336,0.24941 v 12.89862 c 0,0.0928 -0.0377,0.18344 -0.10336,0.24941 l -0.97649,0.97649 c -0.0684,0.0681 -0.15628,0.10372 -0.2473,0.10372"/>
        <path
                id="path4266"
                style="fill:#ffffff;fill-opacity:1;fill-rule:nonzero;stroke:none;stroke-width:0.03527778"
                d="m 128.14202,205.45816 c -0.0473,0 -0.0914,0.0183 -0.12488,0.0515 l -0.97613,0.97649 c -0.0522,0.0522 -0.0667,0.12418 -0.0385,0.19226 0.0282,0.0681 0.0893,0.10866 0.16299,0.10866 h 9.37401 c 0.0691,0 0.12841,-0.037 0.15875,-0.0991 0.0303,-0.0621 0.0229,-0.13159 -0.0198,-0.18556 l -0.76447,-0.97649 c -0.0339,-0.043 -0.0843,-0.0677 -0.13899,-0.0677 z m 8.39753,1.5053 h -9.37401 c -0.14535,0 -0.27023,-0.0833 -0.32597,-0.21767 -0.0557,-0.1344 -0.0261,-0.28187 0.0765,-0.38452 l 0.97649,-0.97614 c 0.0663,-0.0667 0.15522,-0.10336 0.24941,-0.10336 h 7.63306 c 0.10901,0 0.21025,0.0494 0.27799,0.13546 l 0.76482,0.97614 c 0.0836,0.10724 0.0984,0.24977 0.0388,0.37218 -0.0596,0.12241 -0.18097,0.19791 -0.31714,0.19791"/>
        <path
                id="path4268"
                style="fill:#ffffff;fill-opacity:1;fill-rule:nonzero;stroke:none;stroke-width:0.03527778"
                d="m 137.68502,205.44228 h -0.002 l -0.72496,0.009 c -0.0706,7.1e-4 -0.12982,0.0402 -0.15875,0.10407 -0.0286,0.0646 -0.0183,0.13476 0.0279,0.18768 l 1.74237,2.00589 c 0.0335,0.0381 0.0818,0.0603 0.13299,0.0607 l 0.73413,0.002 h 3.5e-4 c 0.0713,0 0.13123,-0.0388 0.16051,-0.10336 0.0296,-0.0646 0.0194,-0.13511 -0.0272,-0.18874 l -1.7519,-2.01647 c -0.0339,-0.0388 -0.0822,-0.0607 -0.13299,-0.0607 z m 1.75119,2.54564 h -3.5e-4 l -0.73448,-0.002 c -0.10195,-3.5e-4 -0.19862,-0.0448 -0.26529,-0.12136 l -1.74237,-2.00554 c -0.0914,-0.10477 -0.11254,-0.24871 -0.0557,-0.37571 0.0568,-0.12664 0.17851,-0.20673 0.3175,-0.20849 l 0.72496,-0.009 c 0.0977,0.002 0.20214,0.0427 0.27023,0.12136 l 1.75224,2.01648 c 0.0921,0.10548 0.11325,0.25011 0.055,0.37782 -0.0582,0.12735 -0.18133,0.20638 -0.32174,0.20638"/>
        <path
                id="path4270"
                style="fill:#8d198f;fill-opacity:1;fill-rule:nonzero;stroke:none;stroke-width:0.03527778"
                d="m 132.22014,198.25867 v -1.07986 c 0,-0.23001 0.18697,-0.41698 0.41733,-0.41698 0.22966,0 0.41663,0.18697 0.41663,0.41698 v 1.07986 c 0,0.23001 -0.18697,0.41698 -0.41663,0.41698 -0.23036,0 -0.41733,-0.18697 -0.41733,-0.41698"/>
        <path
                id="path4272"
                style="fill:#00adef;fill-opacity:1;fill-rule:nonzero;stroke:none;stroke-width:0.03527778"
                d="m 134.54036,196.76183 c -0.23742,0 -0.43075,0.19332 -0.43075,0.43039 v 0.0279 c 0,0.23742 0.19333,0.43074 0.43075,0.43074 0.23741,0 0.43074,-0.19332 0.43074,-0.43074 v -0.0279 c 0,-0.23707 -0.19333,-0.43039 -0.43074,-0.43039"/>
        <path
                id="path4274"
                style="fill:#ec008c;fill-opacity:1;fill-rule:nonzero;stroke:none;stroke-width:0.03527778"
                d="m 138.52004,199.66202 c 0.22966,0 0.41628,-0.18662 0.41628,-0.41593 v -0.0568 c 0,-0.22965 -0.18662,-0.41627 -0.41628,-0.41627 h -0.0289 c -0.2293,0 -0.41592,0.18662 -0.41592,0.41627 v 0.0568 c 0,0.22931 0.18662,0.41593 0.41592,0.41593 h 0.0289"/>
        <path
                id="path4276"
                style="fill:#00adef;fill-opacity:1;fill-rule:nonzero;stroke:none;stroke-width:0.03527778"
                d="m 137.52097,201.75011 h -0.0293 c -0.2293,0 -0.41592,0.18697 -0.41592,0.41628 v 0.0568 c 0,0.22931 0.18662,0.41628 0.41592,0.41628 h 0.0293 c 0.22966,0 0.41593,-0.18697 0.41593,-0.41628 v -0.0568 c 0,-0.22931 -0.18627,-0.41628 -0.41593,-0.41628"/>
        <path
                id="path4278"
                style="fill:#80cc28;fill-opacity:1;fill-rule:nonzero;stroke:none;stroke-width:0.03527778"
                d="m 138.07519,202.16639 v 0.0568 c 0,0.22931 0.18662,0.41628 0.41592,0.41628 h 0.0289 c 0.22966,0 0.41628,-0.18697 0.41628,-0.41628 v -0.0568 c 0,-0.22931 -0.18662,-0.41628 -0.41628,-0.41628 h -0.0289 c -0.2293,0 -0.41592,0.18697 -0.41592,0.41628"/>
        <path
                id="path4280"
                style="fill:#40b93c;fill-opacity:1;fill-rule:nonzero;stroke:none;stroke-width:0.03527778"
                d="m 138.07519,200.23599 c 0,0.22965 0.18662,0.41592 0.41592,0.41592 h 0.0289 c 0.22966,0 0.41628,-0.18627 0.41628,-0.41592 v -0.0572 c 0,-0.22931 -0.18662,-0.41593 -0.41628,-0.41593 h -0.0289 c -0.2293,0 -0.41592,0.18662 -0.41592,0.41593 v 0.0572"/>
        <path
                id="path4282"
                style="fill:#ef2e32;fill-opacity:1;fill-rule:nonzero;stroke:none;stroke-width:0.03527778"
                d="m 136.92972,199.18929 c 0,-0.22965 -0.18662,-0.41627 -0.41593,-0.41627 h -0.0293 c -0.2293,0 -0.41627,0.18662 -0.41627,0.41627 v 0.0568 c 0,0.22931 0.18697,0.41593 0.41627,0.41593 h 0.0293 c 0.22931,0 0.41593,-0.18662 0.41593,-0.41593 v -0.0568"/>
        <path
                id="path4284"
                style="fill:#ef2e32;fill-opacity:1;fill-rule:nonzero;stroke:none;stroke-width:0.03527778"
                d="m 131.67545,196.76183 c -0.23742,0 -0.43074,0.19332 -0.43074,0.43039 v 0.0279 c 0,0.23742 0.19332,0.43074 0.43074,0.43074 0.23742,0 0.43074,-0.19332 0.43074,-0.43074 v -0.0279 c 0,-0.23707 -0.19332,-0.43039 -0.43074,-0.43039"/>
        <path
                id="path4286"
                style="fill:#ef2e32;fill-opacity:1;fill-rule:nonzero;stroke:none;stroke-width:0.03527778"
                d="m 130.67356,194.53792 c 0,-0.16828 0.13688,-0.3048 0.3048,-0.3048 h 1.3462 c 0.16792,0 0.3048,0.13652 0.3048,0.3048 v 1.34585 c 0,0.16827 -0.13688,0.30515 -0.3048,0.30515 h -1.3462 c -0.16792,0 -0.3048,-0.13688 -0.3048,-0.30515 z m -0.21908,2.08633 h 2.39395 c 0.11924,0 0.21626,-0.097 0.21626,-0.21626 v -2.39395 c 0,-0.11923 -0.097,-0.2166 -0.21626,-0.2166 h -2.39395 c -0.11924,0 -0.21625,0.0974 -0.21625,0.2166 v 2.39395 c 0,0.11924 0.097,0.21626 0.21625,0.21626"/>
        <path
                id="path4288"
                style="fill:#8d198f;fill-opacity:1;fill-rule:nonzero;stroke:none;stroke-width:0.03527778"
                d="m 131.65146,195.69115 c 0.26493,0 0.48048,-0.21555 0.48048,-0.48048 0,-0.26494 -0.21555,-0.48013 -0.48048,-0.48013 -0.26494,0 -0.48049,0.21519 -0.48049,0.48013 0,0.26493 0.21555,0.48048 0.48049,0.48048"/>
        <path
                id="path4290"
                style="fill:#80cc28;fill-opacity:1;fill-rule:nonzero;stroke:none;stroke-width:0.03527778"
                d="m 132.63112,201.89898 c 0,0.16792 -0.13688,0.30445 -0.3048,0.30445 h -1.3462 c -0.16792,0 -0.3048,-0.13653 -0.3048,-0.30445 v -1.34585 c 0,-0.16827 0.13688,-0.30515 0.3048,-0.30515 h 1.3462 c 0.16792,0 0.3048,0.13688 0.3048,0.30515 z m 0.21908,-2.08633 h -2.39395 c -0.11924,0 -0.21626,0.097 -0.21626,0.21626 v 2.39395 c 0,0.11923 0.097,0.2166 0.21626,0.2166 h 2.39395 c 0.11924,0 0.21625,-0.0974 0.21625,-0.2166 v -2.39395 c 0,-0.11924 -0.097,-0.21626 -0.21625,-0.21626"/>
        <path
                id="path4292"
                style="fill:#00adef;fill-opacity:1;fill-rule:nonzero;stroke:none;stroke-width:0.03527778"
                d="m 131.65287,200.74575 c -0.26458,0 -0.48013,0.21519 -0.48013,0.48013 0,0.26494 0.21555,0.48048 0.48013,0.48048 0.26494,0 0.48084,-0.21554 0.48084,-0.48048 0,-0.26494 -0.2159,-0.48013 -0.48084,-0.48013"/>
        <path
                id="path4294"
                style="fill:#ec008c;fill-opacity:1;fill-rule:nonzero;stroke:none;stroke-width:0.03527778"
                d="m 138.48406,195.88377 c 0,0.16792 -0.13688,0.3048 -0.3048,0.3048 h -1.34585 c -0.16827,0 -0.3048,-0.13688 -0.3048,-0.3048 v -1.34585 c 0,-0.16828 0.13653,-0.3048 0.3048,-0.3048 h 1.34585 c 0.16792,0 0.3048,0.13652 0.3048,0.3048 z m 0.21907,-2.08633 h -2.39359 c -0.11924,0 -0.21661,0.0974 -0.21661,0.2166 v 2.3936 c 0,0.11959 0.0974,0.21661 0.21661,0.21661 h 2.39359 c 0.11959,0 0.21661,-0.097 0.21661,-0.21661 v -2.3936 c 0,-0.11923 -0.097,-0.2166 -0.21661,-0.2166"/>
        <path
                id="path4296"
                style="fill:#40b93c;fill-opacity:1;fill-rule:nonzero;stroke:none;stroke-width:0.03527778"
                d="m 137.50616,194.73054 c -0.26494,0 -0.48013,0.21519 -0.48013,0.48013 0,0.26493 0.21519,0.48048 0.48013,0.48048 0.26493,0 0.48083,-0.21555 0.48083,-0.48048 0,-0.26494 -0.2159,-0.48013 -0.48083,-0.48013"/>
        <path
                id="path4298"
                style="fill:#40b93c;fill-opacity:1;fill-rule:nonzero;stroke:none;stroke-width:0.03527778"
                d="m 137.52097,197.65083 c 0.22966,0 0.41593,-0.18662 0.41593,-0.41628 v -0.0568 c 0,-0.22931 -0.18627,-0.41593 -0.41593,-0.41593 h -0.0293 c -0.2293,0 -0.41592,0.18662 -0.41592,0.41593 v 0.0568 c 0,0.22966 0.18662,0.41628 0.41592,0.41628 h 0.0293"/>
        <path
                id="path4300"
                style="fill:#ef2e32;fill-opacity:1;fill-rule:nonzero;stroke:none;stroke-width:0.03527778"
                d="m 136.92972,197.17776 c 0,-0.22931 -0.18662,-0.41593 -0.41593,-0.41593 h -0.0293 c -0.2293,0 -0.41627,0.18662 -0.41627,0.41593 v 0.0568 c 0,0.22966 0.18697,0.41628 0.41627,0.41628 h 0.0293 c 0.22931,0 0.41593,-0.18662 0.41593,-0.41628 v -0.0568"/>
        <path
                id="path4302"
                style="fill:#8d198f;fill-opacity:1;fill-rule:nonzero;stroke:none;stroke-width:0.03527778"
                d="m 137.08212,201.16979 c 0,0.23001 0.18732,0.41698 0.41698,0.41698 h 1.01988 c 0.23037,0 0.41734,-0.18697 0.41734,-0.41698 0,-0.23001 -0.18697,-0.41698 -0.41734,-0.41698 h -1.01988 c -0.22966,0 -0.41698,0.18697 -0.41698,0.41698"/>
        <path
                id="path4304"
                style="fill:#ef2e32;fill-opacity:1;fill-rule:nonzero;stroke:none;stroke-width:0.03527778"
                d="m 136.48557,200.78491 c -0.23036,0 -0.41733,0.18697 -0.41733,0.41733 v 1.01988 c 0,0.23002 0.18697,0.41734 0.41733,0.41734 0.23001,0 0.41699,-0.18732 0.41699,-0.41734 v -1.01988 c 0,-0.23036 -0.18698,-0.41733 -0.41699,-0.41733"/>
        <path
                id="path4306"
                style="fill:#80cc28;fill-opacity:1;fill-rule:nonzero;stroke:none;stroke-width:0.03527778"
                d="m 136.92972,198.17894 c 0,-0.22931 -0.18662,-0.41593 -0.41593,-0.41593 h -0.0293 c -0.2293,0 -0.41627,0.18662 -0.41627,0.41593 v 0.0568 c 0,0.22965 0.18697,0.41627 0.41627,0.41627 h 0.0293 c 0.22931,0 0.41593,-0.18662 0.41593,-0.41627 v -0.0568"/>
        <path
                id="path4308"
                style="fill:#40b93c;fill-opacity:1;fill-rule:nonzero;stroke:none;stroke-width:0.03527778"
                d="m 134.53577,199.74421 c -0.22966,0 -0.41663,0.18698 -0.41663,0.41699 v 2.06092 c 0,0.23002 0.18697,0.41734 0.41663,0.41734 0.23036,0 0.41734,-0.18732 0.41734,-0.41734 v -2.06092 c 0,-0.23001 -0.18698,-0.41699 -0.41734,-0.41699"/>
        <path
                id="path4310"
                style="fill:#40b93c;fill-opacity:1;fill-rule:nonzero;stroke:none;stroke-width:0.03527778"
                d="m 135.55953,194.79404 h -1.96532 c -0.23002,0 -0.41699,0.18697 -0.41699,0.41663 0,0.23036 0.18697,0.41733 0.41699,0.41733 h 1.96532 c 0.23001,0 0.41698,-0.18697 0.41698,-0.41733 0,-0.22966 -0.18697,-0.41663 -0.41698,-0.41663"/>
        <path
                id="path4312"
                style="fill:#40b93c;fill-opacity:1;fill-rule:nonzero;stroke:none;stroke-width:0.03527778"
                d="m 136.48451,199.76291 c -0.2293,0 -0.41627,0.18662 -0.41627,0.41593 v 0.0572 c 0,0.22965 0.18697,0.41592 0.41627,0.41592 h 0.0293 c 0.22931,0 0.41593,-0.18627 0.41593,-0.41592 v -0.0572 c 0,-0.22931 -0.18662,-0.41593 -0.41593,-0.41593 h -0.0293"/>
        <path
                id="path4314"
                style="fill:#8d198f;fill-opacity:1;fill-rule:nonzero;stroke:none;stroke-width:0.03527778"
                d="m 137.07577,198.23574 c 0,0.22965 0.18662,0.41627 0.41592,0.41627 h 0.0293 c 0.22966,0 0.41593,-0.18662 0.41593,-0.41627 v -0.0568 c 0,-0.22931 -0.18627,-0.41593 -0.41593,-0.41593 h -0.0293 c -0.2293,0 -0.41592,0.18662 -0.41592,0.41593 v 0.0568"/>
        <path
                id="path4316"
                style="fill:#00adef;fill-opacity:1;fill-rule:nonzero;stroke:none;stroke-width:0.03527778"
                d="m 137.9369,200.23599 v -0.0572 c 0,-0.22931 -0.18627,-0.41593 -0.41593,-0.41593 h -0.0293 c -0.2293,0 -0.41592,0.18662 -0.41592,0.41593 v 0.0572 c 0,0.22965 0.18662,0.41592 0.41592,0.41592 h 0.0293 c 0.22966,0 0.41593,-0.18627 0.41593,-0.41592"/>
        <path
                id="path4318"
                style="fill:#ec008c;fill-opacity:1;fill-rule:nonzero;stroke:none;stroke-width:0.03527778"
                d="m 132.20673,199.25879 c 0,0.22931 0.18627,0.41593 0.41593,0.41593 h 0.0293 c 0.2293,0 0.41592,-0.18662 0.41592,-0.41593 v -0.0568 c 0,-0.22965 -0.18662,-0.41627 -0.41592,-0.41627 h -0.0293 c -0.22966,0 -0.41593,0.18662 -0.41593,0.41627 v 0.0568"/>
    </g>
</svg>
