<svg width="16" height="16" viewBox="0 0 16 16" fill="none" xmlns="http://www.w3.org/2000/svg">
<path fillRule="evenodd" clip-rule="evenodd" d="M2.80151 10.3773C2.87153 10.3617 2.94466 10.3721 3.00858 10.4046C3.32868 10.5675 3.66299 10.6979 4.00653 10.7947C4.00217 10.697 3.99996 10.5988 3.99996 10.5C3.99996 6.91006 6.91003 4 10.5 4C10.5988 4 10.6971 4.00221 10.7948 4.00657C10.1441 1.69466 8.01999 0 5.49997 0C2.46232 0 -2.67029e-05 2.46235 -2.67029e-05 5.5C-0.00133133 6.36637 0.202954 7.22015 0.595361 7.99139C0.627885 8.05531 0.638218 8.12844 0.622656 8.19845L0.170465 10.2329C0.0910578 10.5902 0.409776 10.9089 0.767038 10.8295L2.80151 10.3773ZM13.1141 15.3586C13.0985 15.3551 13.0822 15.3573 13.0681 15.3648C12.277 15.7832 11.3952 16.0013 10.5 16C7.46235 16 5 13.5376 5 10.5C5 7.46235 7.46235 5 10.5 5C13.5376 5 16 7.46235 16 10.5C16.0013 11.3952 15.7832 12.277 15.3648 13.0681C15.3573 13.0822 15.3551 13.0985 15.3586 13.1141L15.8106 15.1477C15.8988 15.5447 15.5447 15.8988 15.1477 15.8106L13.1141 15.3586Z" fill="white"/>
</svg>
