<svg width="24" height="24" viewBox="0 0 24 24" fill="none" xmlns="http://www.w3.org/2000/svg">
<path d="M7.40374 7.40422C7.01321 7.79475 7.01321 8.42791 7.40374 8.81843L10.5857 12.0004L7.40373 15.1824C7.01321 15.5729 7.01321 16.2061 7.40373 16.5966C7.79426 16.9872 8.42742 16.9872 8.81795 16.5966L11.9999 13.4146L15.1819 16.5966C15.5724 16.9871 16.2056 16.9871 16.5961 16.5966C16.9867 16.2061 16.9867 15.5729 16.5961 15.1824L13.4142 12.0004L16.5961 8.81846C16.9866 8.42794 16.9866 7.79477 16.5961 7.40425C16.2056 7.01373 15.5724 7.01373 15.1819 7.40425L11.9999 10.5862L8.81795 7.40422C8.42743 7.0137 7.79426 7.0137 7.40374 7.40422Z" fill="#1A1A1A"/>
</svg>
