<svg width="48" height="48" viewBox="0 0 48 48" fill="none" xmlns="http://www.w3.org/2000/svg">
<path fillRule="evenodd" clip-rule="evenodd" d="M34 11H14C11.7909 11 10 12.7909 10 15V32C10 34.2091 11.7909 36 14 36H34C36.2091 36 38 34.2091 38 32V15C38 12.7909 36.2091 11 34 11ZM14 9C10.6863 9 8 11.6863 8 15V32C8 35.3137 10.6863 38 14 38H34C37.3137 38 40 35.3137 40 32V15C40 11.6863 37.3137 9 34 9H14Z" fill="#1A1A1A"/>
<path fillRule="evenodd" clip-rule="evenodd" d="M38 20H30C28.3431 20 27 21.3431 27 23V24C27 25.6569 28.3431 27 30 27H38V20ZM30 18C27.2386 18 25 20.2386 25 23V24C25 26.7614 27.2386 29 30 29H40V18H30Z" fill="#1A1A1A"/>
<path d="M33 23.5C33 24.3284 32.3284 25 31.5 25C30.6716 25 30 24.3284 30 23.5C30 22.6716 30.6716 22 31.5 22C32.3284 22 33 22.6716 33 23.5Z" fill="#1A1A1A"/>
</svg>
