<svg width="24" height="24" viewBox="0 0 24 24" fill="none" xmlns="http://www.w3.org/2000/svg">
<path fillRule="evenodd" clip-rule="evenodd" d="M12 8.00013C12.5523 8.00013 13 8.44785 13 9.00013V10.3231L20.4972 13.322C22.0088 13.9266 23 15.3906 23 17.0187C23 19.2176 21.2174 21.0001 19.0185 21.0001H4.98146C2.78256 21.0001 1 19.2176 1 17.0187C1 15.3906 1.99119 13.9266 3.50278 13.322L11 10.3231V9.00013C11 8.44785 11.4477 8.00013 12 8.00013ZM12 12.0772L4.24556 15.1789C3.49329 15.4799 3 16.2084 3 17.0187C3 18.113 3.88713 19.0001 4.98146 19.0001H19.0185C20.1129 19.0001 21 18.113 21 17.0187C21 16.2084 20.5067 15.4799 19.7544 15.1789L12 12.0772Z" fill="white"/>
<path fillRule="evenodd" clip-rule="evenodd" d="M11.2267 5.02523C10.4122 5.17615 9.87418 5.95883 10.0251 6.77339C10.176 7.58796 10.9587 8.12595 11.7733 7.97503C12.3163 7.87442 12.8381 8.23308 12.9387 8.77612C13.0393 9.31917 12.6807 9.84095 12.1376 9.94156C10.237 10.2937 8.41071 9.03839 8.05857 7.13774C7.70643 5.23709 8.96174 3.41084 10.8624 3.0587C12.763 2.70656 14.5893 3.96187 14.9414 5.86252C15.042 6.40557 14.6834 6.92735 14.1403 7.02796C13.5973 7.12858 13.0755 6.76991 12.9749 6.22687C12.824 5.41231 12.0413 4.87431 11.2267 5.02523Z" fill="white"/>
</svg>
