<svg width="24" height="24" viewBox="0 0 24 24" fill="none" xmlns="http://www.w3.org/2000/svg">
<path fill-rule="evenodd" clip-rule="evenodd" d="M3 5.47826C3 2.99233 5.06855 1 7.55556 1H16.4444C18.9315 1 21 2.99233 21 5.47826V5.93478C21 6.76651 20.2902 7.5023 19.3661 7.37456C19.2216 7.35459 19.1508 7.34783 19.1111 7.34783C17.687 7.34783 16.5556 8.48593 16.5556 9.82609C16.5556 11.1662 17.687 12.3043 19.1111 12.3043C19.1508 12.3043 19.2216 12.2976 19.3661 12.2776C20.2902 12.1499 21 12.8857 21 13.7174V14.1739C21 16.6234 18.9917 18.5936 16.5537 18.6509C16.4835 21.0763 14.4438 23 12 23C9.55621 23 7.51647 21.0763 7.44631 18.6509C5.00827 18.5936 3 16.6234 3 14.1739V5.47826ZM7.55556 3C6.13145 3 5 4.13811 5 5.47826V14.1739C5 15.5141 6.13145 16.6522 7.55556 16.6522H9.44444V18.5217C9.44444 19.8619 10.5759 21 12 21C13.4241 21 14.5556 19.8619 14.5556 18.5217V16.6522H16.4444C17.8226 16.6522 18.9267 15.5863 18.9965 14.3029C16.5609 14.2429 14.5556 12.2737 14.5556 9.82609C14.5556 7.37844 16.5609 5.40932 18.9965 5.34924C18.9267 4.06587 17.8226 3 16.4444 3H7.55556Z" fill="white"/>
</svg>
