<svg width="24" height="24" viewBox="0 0 24 24" fill="none" xmlns="http://www.w3.org/2000/svg">
<path d="M24 11.3C24 9.5 22.7 8.1 21 7.9V7.4C21 4.4 18.3 2 15 2H9C5.7 2 3 4.4 3 7.4V7.8C1.3 8.1 0 9.5 0 11.3C0 12.3 0.4 13.2 1.1 13.8C1 14 1 14.1 1 14.3V15.2C1 16.9 2.3 18.3 4 18.7V18.8V20.8C4 21.4 4.4 21.8 5 21.8C5.6 21.8 6 21.4 6 20.8V18.8H18V20.8C18 21.4 18.4 21.8 19 21.8C19.6 21.8 20 21.4 20 20.8V18.8V18.7C21.7 18.3 23 16.9 23 15.2V14.3C23 14.1 23 14 22.9 13.8C23.6 13.2 24 12.3 24 11.3ZM5 7.4C5 5.5 6.8 4 9 4H15C17.2 4 19 5.5 19 7.4V8.1C18 8.6 17.3 9.5 17.1 10.6H6.9C6.7 9.6 6 8.6 5 8.1V7.4ZM2 11.3C2 10.6 2.4 10.1 3 9.9C3.2 9.8 3.3 9.8 3.5 9.8C4.1 9.8 4.6 10.2 4.9 10.7C4.2 10.7 3.6 10.9 3 11.2C2.7 11.4 2.4 11.6 2.1 11.8C2 11.7 2 11.5 2 11.3ZM21 15.2C21 16.1 20.1 16.8 19 16.8H5C3.9 16.8 3 16.1 3 15.2V14.8V14.4C3 13.7 3.6 13.1 4.3 12.9C4.5 12.8 4.7 12.8 5 12.8H6.7H17.3H19C19.2 12.8 19.5 12.8 19.7 12.9C20.5 13.1 21 13.7 21 14.4V14.8V15.2ZM21 11.2C20.4 10.9 19.8 10.7 19.1 10.7C19.3 10.2 19.9 9.8 20.5 9.8C20.7 9.8 20.8 9.8 21 9.9C21.6 10.1 22 10.7 22 11.3C22 11.5 22 11.7 21.9 11.8C21.6 11.6 21.3 11.4 21 11.2Z" fill="white"/>
</svg>
