<svg width="24" height="24" viewBox="0 0 24 24" fill="none" xmlns="http://www.w3.org/2000/svg">
<path fill-rule="evenodd" clip-rule="evenodd" d="M16 7H8C4.68629 7 2 9.68629 2 13C2 16.3137 4.68629 19 8 19H16C19.3137 19 22 16.3137 22 13C22 9.68629 19.3137 7 16 7ZM8 5C3.58172 5 0 8.58172 0 13C0 17.4183 3.58172 21 8 21H16C20.4183 21 24 17.4183 24 13C24 8.58172 20.4183 5 16 5H8Z" fill="white"/>
<path d="M11 2C11 1.44772 11.4477 1 12 1C12.5523 1 13 1.44772 13 2V6C13 6.55228 12.5523 7 12 7C11.4477 7 11 6.55228 11 6V2Z" fill="white"/>
<path d="M5 13C5 12.4477 5.44772 12 6 12H8C8.55228 12 9 12.4477 9 13C9 13.5523 8.55228 14 8 14H6C5.44772 14 5 13.5523 5 13Z" fill="white"/>
<path d="M6 12C6 11.4477 6.44772 11 7 11C7.55228 11 8 11.4477 8 12V14C8 14.5523 7.55228 15 7 15C6.44772 15 6 14.5523 6 14V12Z" fill="white"/>
<path fill-rule="evenodd" clip-rule="evenodd" d="M16 14C16.5523 14 17 13.5523 17 13C17 12.4477 16.5523 12 16 12C15.4477 12 15 12.4477 15 13C15 13.5523 15.4477 14 16 14ZM16 16C17.6569 16 19 14.6569 19 13C19 11.3431 17.6569 10 16 10C14.3431 10 13 11.3431 13 13C13 14.6569 14.3431 16 16 16Z" fill="white"/>
</svg>
