<svg width="24" height="24" viewBox="0 0 24 24" fill="none" xmlns="http://www.w3.org/2000/svg">
<path fill-rule="evenodd" clip-rule="evenodd" d="M12.2941 3.51387C11.933 3.23301 11.4273 3.23301 11.0662 3.51387L4.06624 8.95832C3.82265 9.14777 3.68018 9.43908 3.68018 9.74767V19.7695C3.68018 20.0347 3.78553 20.2891 3.97307 20.4766C4.16061 20.6641 4.41496 20.7695 4.68018 20.7695H18.6802C18.9454 20.7695 19.1997 20.6641 19.3873 20.4766C19.5748 20.2891 19.6802 20.0347 19.6802 19.7695V9.74767C19.6802 9.43908 19.5377 9.14777 19.2941 8.95832L12.2941 3.51387ZM9.83836 1.93517C10.9217 1.09257 12.4387 1.09258 13.522 1.93517L20.522 7.37961C21.2528 7.94798 21.6802 8.8219 21.6802 9.74767V19.7695C21.6802 20.5652 21.3641 21.3282 20.8015 21.8908C20.2389 22.4534 19.4758 22.7695 18.6802 22.7695H4.68018C3.88453 22.7695 3.12146 22.4534 2.55886 21.8908C1.99625 21.3282 1.68018 20.5652 1.68018 19.7695V9.74767C1.68018 8.8219 2.10759 7.94798 2.83835 7.37961L9.83836 1.93517Z" fill="white"/>
<path fill-rule="evenodd" clip-rule="evenodd" d="M7.68018 11.7695C7.68018 11.2172 8.12789 10.7695 8.68018 10.7695H14.6802C15.2325 10.7695 15.6802 11.2172 15.6802 11.7695V21.7695C15.6802 22.3218 15.2325 22.7695 14.6802 22.7695C14.1279 22.7695 13.6802 22.3218 13.6802 21.7695V12.7695H9.68018V21.7695C9.68018 22.3218 9.23246 22.7695 8.68018 22.7695C8.12789 22.7695 7.68018 22.3218 7.68018 21.7695V11.7695Z" fill="white"/>
</svg>
