<svg width="24" height="24" viewBox="0 0 24 24" fill="none" xmlns="http://www.w3.org/2000/svg">
<path fill-rule="evenodd" clip-rule="evenodd" d="M10.2066 20.6017C9.57416 20.8646 8.89612 21 8.2113 21C7.52647 21 6.84843 20.8646 6.21594 20.6017C5.58346 20.3388 5.00902 19.9535 4.52535 19.4681C4.04161 18.9829 3.65804 18.4071 3.39638 17.7736C3.13467 17.14 3 16.4609 3 15.7752C3 15.0895 3.13467 14.4104 3.39638 13.7768C3.65807 13.1432 4.0417 12.5673 4.52551 12.0821L5.33687 11.2682C9.01348 7.5798 14.9869 7.5798 18.6635 11.2682L19.4749 12.0821C20.4518 13.0621 21 14.3906 21 15.7752C21 17.1598 20.4518 18.4883 19.4749 19.4683C18.4979 20.4484 17.1722 20.9996 15.7891 20.9996C15.3585 20.9996 14.9248 20.8649 14.5723 20.724C13.0925 20.1326 11.5614 20.0386 10.2066 20.6017ZM8.2113 19C8.63251 19 9.04967 18.9167 9.43897 18.7549C11.3868 17.9452 13.4731 18.1309 15.3145 18.8668C15.586 18.9753 15.7387 18.9996 15.7891 18.9996C16.6397 18.9996 17.456 18.6606 18.0584 18.0563C18.6609 17.4519 19 16.6314 19 15.7752C19 14.919 18.6609 14.0985 18.0584 13.4941L17.2471 12.6801C14.352 9.77581 9.64839 9.77581 6.75335 12.6801L5.94199 13.4941C5.64361 13.7933 5.40658 14.1489 5.24492 14.5403C5.08325 14.9317 5 15.3513 5 15.7752C5 16.1991 5.08325 16.6187 5.24492 17.0101C5.40658 17.4015 5.64344 17.7569 5.94182 18.0561C6.24005 18.3555 6.59431 18.5931 6.98362 18.7549C7.37292 18.9167 7.79008 19 8.2113 19Z" fill="white"/>
<path d="M7 7.5C7 8.32843 6.32843 9 5.5 9C4.67157 9 4 8.32843 4 7.5C4 6.67157 4.67157 6 5.5 6C6.32843 6 7 6.67157 7 7.5Z" fill="white"/>
<path d="M11 4.5C11 5.32843 10.3284 6 9.5 6C8.67157 6 8 5.32843 8 4.5C8 3.67157 8.67157 3 9.5 3C10.3284 3 11 3.67157 11 4.5Z" fill="white"/>
<path d="M16 4.5C16 5.32843 15.3284 6 14.5 6C13.6716 6 13 5.32843 13 4.5C13 3.67157 13.6716 3 14.5 3C15.3284 3 16 3.67157 16 4.5Z" fill="white"/>
<path d="M20 7.5C20 8.32843 19.3284 9 18.5 9C17.6716 9 17 8.32843 17 7.5C17 6.67157 17.6716 6 18.5 6C19.3284 6 20 6.67157 20 7.5Z" fill="white"/>
</svg>
