<svg width="24" height="24" viewBox="0 0 24 24" fill="none" xmlns="http://www.w3.org/2000/svg">
<path d="M23 11.4C22.7 6.6 19.4 2.6 14.9 1.4C14.2 1.2 13.5 1.1 12.8 1C12.5 1 12.3 1 12 1C8.6 1 5.5 2.6 3.5 5C3 5.7 2.5 6.4 2.1 7.2C1.5 8.5 1.1 10 1 11.5C1 11.7 1 11.8 1 12C1 12.5 1.1 13.1 1.1 13.6C1.7 17.9 4.9 21.4 9 22.6C9.7 22.8 10.3 22.9 11 23C11.3 23 11.6 23 11.9 23C13.1 23 14.3 22.8 15.4 22.4C16.2 22.1 17 21.8 17.7 21.3C20.4 19.6 22.3 16.8 22.8 13.4C23 13 23 12.5 23 12C23 11.8 23 11.6 23 11.4ZM20.9 11C20.6 11 20.3 11 20 11C18.6 11 17.2 11.3 16 11.8C15.3 10.6 14.4 9.6 13.4 8.7C14.3 7.2 14.9 5.4 15 3.6C18.2 4.6 20.6 7.5 20.9 11ZM12 3C12.3 3 12.7 3 13 3.1C13 4.7 12.6 6.2 11.8 7.4C10.2 6.3 8.2 5.5 6.1 5.2C7.7 3.8 9.8 3 12 3ZM4.5 7C6.8 7.1 8.9 7.8 10.7 9C9 10.8 6.6 12 4 12C3.7 12 3.3 12 3 11.9C3 10.1 3.6 8.4 4.5 7ZM3.2 14C3.5 14 3.7 14 4 14C7.3 14 10.2 12.6 12.2 10.3C13 11 13.6 11.8 14.2 12.7C11.5 14.4 9.6 17.2 9.1 20.5C6.2 19.5 3.9 17 3.2 14ZM12 21C11.7 21 11.4 21 11.1 21C11.4 18.3 12.9 15.9 15.1 14.5C15.7 15.9 16 17.4 16 19C16 19.4 16 19.7 15.9 20.1C14.8 20.7 13.4 21 12 21ZM18 18.7C18 16.9 17.6 15.1 16.9 13.6C17.9 13.2 18.9 13 20 13C20.3 13 20.6 13 20.9 13C20.7 15.3 19.6 17.3 18 18.7Z" fill="white"/>
</svg>
