<svg width="32" height="32" viewBox="0 0 32 32" fill="none" xmlns="http://www.w3.org/2000/svg">
<path fill-rule="evenodd" clip-rule="evenodd" d="M23 6H9C7.89543 6 7 6.89543 7 8V17H25V8C25 6.89543 24.1046 6 23 6ZM7 24V19H25V24C25 25.1046 24.1046 26 23 26H9C7.89543 26 7 25.1046 7 24ZM9 4C6.79086 4 5 5.79086 5 8V24C5 26.2091 6.79086 28 9 28H23C25.2091 28 27 26.2091 27 24V8C27 5.79086 25.2091 4 23 4H9ZM14 10.5C14 9.67157 13.3284 9 12.5 9H10.5C9.67157 9 9 9.67157 9 10.5V12.5C9 13.3284 9.67157 14 10.5 14H12.5C13.3284 14 14 13.3284 14 12.5V10.5ZM17 9C16.4477 9 16 9.44772 16 10C16 10.5523 16.4477 11 17 11H22C22.5523 11 23 10.5523 23 10C23 9.44772 22.5523 9 22 9H17ZM16 13C16 12.4477 16.4477 12 17 12H22C22.5523 12 23 12.4477 23 13C23 13.5523 22.5523 14 22 14H17C16.4477 14 16 13.5523 16 13Z" fill="#676767"/>
</svg>
