<svg width="24" height="24" viewBox="0 0 24 24" fill="none" xmlns="http://www.w3.org/2000/svg">
<path fill-rule="evenodd" clip-rule="evenodd" d="M9.99973 18C9.99973 17.4477 10.4474 17 10.9997 17H14.9997C15.552 17 15.9997 17.4477 15.9997 18C15.9997 18.5523 15.552 19 14.9997 19H10.9997C10.4474 19 9.99973 18.5523 9.99973 18Z" fill="white"/>
<path fill-rule="evenodd" clip-rule="evenodd" d="M8.99973 6C9.944 4.74097 11.4259 4 12.9997 4H16.3238C18.3299 4 20.2033 5.00261 21.3161 6.6718L22.9763 9.16203C23.6436 10.1631 23.9997 11.3392 23.9997 12.5423V15C23.9997 17.2091 22.2089 19 19.9997 19V17C21.1043 17 21.9997 16.1046 21.9997 15V12.5423C21.9997 11.7341 21.7605 10.9439 21.3122 10.2714L19.652 7.7812C18.9102 6.6684 17.6612 6 16.3238 6H12.9997C12.0555 6 11.1663 6.44458 10.5997 7.2L8.19973 10.4C7.44431 11.4072 6.25876 12 4.99973 12H4.45876C3.24166 12 2.30674 13.078 2.47886 14.2828L2.74437 16.1414C2.81475 16.6341 3.23667 17 3.73432 17H5.49973V19H3.73432C2.24137 19 0.975608 17.9022 0.764473 16.4243L0.498961 14.5657C0.154714 12.156 2.02456 10 4.45876 10H4.99973C5.62924 10 6.22202 9.70361 6.59973 9.2L8.99973 6Z" fill="white"/>
<path fill-rule="evenodd" clip-rule="evenodd" d="M7.99973 19C8.55202 19 8.99973 18.5523 8.99973 18C8.99973 17.4477 8.55202 17 7.99973 17C7.44745 17 6.99973 17.4477 6.99973 18C6.99973 18.5523 7.44745 19 7.99973 19ZM7.99973 21C9.65658 21 10.9997 19.6569 10.9997 18C10.9997 16.3431 9.65658 15 7.99973 15C6.34288 15 4.99973 16.3431 4.99973 18C4.99973 19.6569 6.34288 21 7.99973 21Z" fill="white"/>
<path fill-rule="evenodd" clip-rule="evenodd" d="M17.9997 19C18.552 19 18.9997 18.5523 18.9997 18C18.9997 17.4477 18.552 17 17.9997 17C17.4474 17 16.9997 17.4477 16.9997 18C16.9997 18.5523 17.4474 19 17.9997 19ZM17.9997 21C19.6566 21 20.9997 19.6569 20.9997 18C20.9997 16.3431 19.6566 15 17.9997 15C16.3429 15 14.9997 16.3431 14.9997 18C14.9997 19.6569 16.3429 21 17.9997 21Z" fill="white"/>
<path fill-rule="evenodd" clip-rule="evenodd" d="M15.1283 5.07152C15.6411 4.86641 16.2231 5.11583 16.4282 5.62861L17.3311 7.88583C18.1193 9.85642 16.6681 12 14.5457 12H4.99973V10H14.5457C15.2531 10 15.7369 9.28547 15.4741 8.62861L14.5713 6.37139C14.3661 5.85861 14.6156 5.27664 15.1283 5.07152Z" fill="white"/>
</svg>
