<svg width="32" height="32" viewBox="0 0 32 32" fill="none" xmlns="http://www.w3.org/2000/svg">
<path fill-rule="evenodd" clip-rule="evenodd" d="M9.28225 4C7.68414 4 6.35909 5.22193 6.25038 6.79593L5.00718 24.7959C4.88748 26.5291 6.27934 28 8.03906 28H23.9609C25.7207 28 27.1125 26.5291 26.9928 24.7959L25.7496 6.79593C25.6409 5.22193 24.3159 4 22.7177 4H9.28225ZM8.27163 6.93198C8.30786 6.40731 8.74955 6 9.28225 6H22.7177C23.2505 6 23.6921 6.40731 23.7284 6.93198L24.9716 24.932C25.0115 25.5097 24.5475 26 23.9609 26H8.03906C7.45249 26 6.98853 25.5097 7.02843 24.932L8.27163 6.93198ZM12.5204 10.0606C12.5204 9.47485 12.0681 9 11.5102 9C10.9523 9 10.5 9.47485 10.5 10.0606C10.5 11.6243 11.0713 13.131 12.0987 14.2474C13.1273 15.3651 14.5299 16 16 16C17.4701 16 18.8727 15.3651 19.9013 14.2474C20.9287 13.131 21.5 11.6243 21.5 10.0606C21.5 9.47485 21.0477 9 20.4898 9C19.9319 9 19.4796 9.47485 19.4796 10.0606C19.4796 11.0848 19.1048 12.06 18.4483 12.7735C17.7928 13.4857 16.9114 13.8788 16 13.8788C15.0886 13.8788 14.2072 13.4857 13.5517 12.7735C12.8952 12.06 12.5204 11.0848 12.5204 10.0606Z" fill="#EF5D54"/>
</svg>
