<svg width="32" height="32" viewBox="0 0 32 32" fill="none" xmlns="http://www.w3.org/2000/svg">
<path fill-rule="evenodd" clip-rule="evenodd" d="M11.5332 7.05734C12.9173 6.35826 14.4468 5.99599 15.9974 6.00003C17.8878 6.00496 19.2124 6.30817 20.2658 6.79435C21.3236 7.28256 22.1769 7.9863 23.0953 8.90472C24.8251 10.6345 25.8587 12.9395 26 15.3812V16L26 16.0026C26.004 17.5532 25.6417 19.0827 24.9427 20.4668L24.9408 20.4706C24.1107 22.1314 22.8346 23.5284 21.2554 24.505C19.6762 25.4816 17.8564 25.9992 15.9996 26L15.9974 26C14.4468 26.004 12.9173 25.6417 11.5332 24.9427C11.336 24.843 11.1113 24.8116 10.8943 24.8531L6.25937 25.7407L7.1469 21.1057C7.18845 20.8887 7.15696 20.664 7.05734 20.4668C6.35826 19.0827 5.99599 17.5532 6.00003 16.0026L6.00004 16.0004C6.00076 14.1436 6.5184 12.3238 7.49499 10.7446C8.47159 9.16541 9.86856 7.88933 11.5294 7.05925L11.5332 7.05734ZM16.0026 4.00004C14.1378 3.99518 12.2981 4.43071 10.6334 5.27119C8.64119 6.2673 6.96553 7.79824 5.79399 9.69264C4.62227 11.5873 4.00111 13.7708 4.00004 15.9985C3.99564 17.7478 4.37874 19.4748 5.12006 21.0561L4.01791 26.8119C3.95558 27.1374 4.05859 27.4727 4.29296 27.7071C4.52733 27.9414 4.8626 28.0445 5.18814 27.9821L10.9439 26.8799C12.5251 27.6212 14.2521 28.0043 16.0013 28C18.2291 27.9989 20.4126 27.3778 22.3074 26.206C24.2018 25.0345 25.7327 23.3588 26.7288 21.3666C27.5691 19.7023 28.0046 17.8632 28 15.9989V15.3529C28 15.3346 27.9995 15.3162 27.9984 15.2979C27.8361 12.3547 26.5938 9.57481 24.5095 7.4905C23.5177 6.49868 22.4698 5.60885 21.1039 4.97844C19.7337 4.346 18.1122 4.00554 16.0026 4.00004ZM10 14C10 13.4477 10.4477 13 11 13H21C21.5523 13 22 13.4477 22 14C22 14.5523 21.5523 15 21 15H11C10.4477 15 10 14.5523 10 14ZM10 18C10 17.4477 10.5037 17 11.125 17H17.875C18.4963 17 19 17.4477 19 18C19 18.5523 18.4963 19 17.875 19H11.125C10.5037 19 10 18.5523 10 18Z" fill="#676767"/>
</svg>
