<svg width="44" height="42" viewBox="0 0 44 42" fill="none" xmlns="http://www.w3.org/2000/svg">
<g filter="url(#filter0_ddd)">
<mask id="path-2-inside-1" fill="white">
<path fill-rule="evenodd" clip-rule="evenodd" d="M24.462 10.4931C25.2508 10.1663 26.0963 9.99805 26.9501 9.99805C27.804 9.99805 28.6495 10.1663 29.4383 10.4931C30.2269 10.8199 30.9435 11.2989 31.5471 11.9026C32.1508 12.5062 32.6301 13.2231 32.9569 14.0117C33.2837 14.8005 33.4519 15.646 33.4519 16.4999C33.4519 17.3537 33.2837 18.1992 32.9569 18.988C32.6301 19.7768 32.1511 20.4934 31.5472 21.097L22.7072 29.937C22.3167 30.3275 21.6835 30.3275 21.293 29.937L12.453 21.097C11.2338 19.8778 10.5488 18.2241 10.5488 16.4999C10.5488 14.7756 11.2338 13.122 12.453 11.9028C13.6722 10.6835 15.3259 9.99858 17.0501 9.99858C18.7744 9.99858 20.428 10.6835 21.6472 11.9028L22.0001 12.2557L22.3528 11.9029C22.9564 11.2991 23.6732 10.8199 24.462 10.4931Z"/>
</mask>
<path fill-rule="evenodd" clip-rule="evenodd" d="M24.462 10.4931C25.2508 10.1663 26.0963 9.99805 26.9501 9.99805C27.804 9.99805 28.6495 10.1663 29.4383 10.4931C30.2269 10.8199 30.9435 11.2989 31.5471 11.9026C32.1508 12.5062 32.6301 13.2231 32.9569 14.0117C33.2837 14.8005 33.4519 15.646 33.4519 16.4999C33.4519 17.3537 33.2837 18.1992 32.9569 18.988C32.6301 19.7768 32.1511 20.4934 31.5472 21.097L22.7072 29.937C22.3167 30.3275 21.6835 30.3275 21.293 29.937L12.453 21.097C11.2338 19.8778 10.5488 18.2241 10.5488 16.4999C10.5488 14.7756 11.2338 13.122 12.453 11.9028C13.6722 10.6835 15.3259 9.99858 17.0501 9.99858C18.7744 9.99858 20.428 10.6835 21.6472 11.9028L22.0001 12.2557L22.3528 11.9029C22.9564 11.2991 23.6732 10.8199 24.462 10.4931Z" fill="black" fill-opacity="0.4"/>
<path d="M24.462 10.4931L23.6964 8.64545V8.64545L24.462 10.4931ZM29.4383 10.4931L30.2038 8.64545V8.64545L29.4383 10.4931ZM31.5471 11.9026L30.1326 13.3166L30.1331 13.317L31.5471 11.9026ZM32.9569 14.0117L31.1092 14.7773L31.1092 14.7773L32.9569 14.0117ZM32.9569 18.988L31.1092 18.2224L31.1092 18.2224L32.9569 18.988ZM31.5472 21.097L30.1333 19.6825L30.133 19.6828L31.5472 21.097ZM21.293 29.937L22.7072 28.5228L21.293 29.937ZM12.453 21.097L11.0388 22.5112H11.0388L12.453 21.097ZM21.6472 11.9028L20.233 13.317L20.233 13.317L21.6472 11.9028ZM22.0001 12.2557L20.5859 13.6699C21.367 14.4509 22.6333 14.4509 23.4143 13.6699L22.0001 12.2557ZM22.3528 11.9029L23.7671 13.3171L23.7673 13.3169L22.3528 11.9029ZM26.9501 7.99805C25.8335 7.99805 24.7279 8.21804 23.6964 8.64545L25.2276 12.3408C25.7737 12.1145 26.359 11.998 26.9501 11.998V7.99805ZM30.2038 8.64545C29.1723 8.21804 28.0667 7.99805 26.9501 7.99805V11.998C27.5412 11.998 28.1266 12.1145 28.6727 12.3408L30.2038 8.64545ZM32.9615 10.4886C32.1722 9.6991 31.2352 9.07279 30.2038 8.64545L28.6727 12.3408C29.2187 12.567 29.7148 12.8986 30.1326 13.3166L32.9615 10.4886ZM34.8045 13.2461C34.3771 12.2147 33.7505 11.2773 32.961 10.4882L30.1331 13.317C30.5512 13.735 30.883 14.2314 31.1092 14.7773L34.8045 13.2461ZM35.4519 16.4999C35.4519 15.3833 35.232 14.2777 34.8045 13.2461L31.1092 14.7773C31.3355 15.3234 31.4519 15.9087 31.4519 16.4999H35.4519ZM34.8045 19.7536C35.232 18.7221 35.4519 17.6164 35.4519 16.4999H31.4519C31.4519 17.091 31.3355 17.6763 31.1092 18.2224L34.8045 19.7536ZM32.9612 22.5115C33.7508 21.7222 34.3772 20.785 34.8045 19.7536L31.1092 18.2224C30.8829 18.7685 30.5513 19.2646 30.1333 19.6825L32.9612 22.5115ZM19.8788 31.3512C21.0504 32.5228 22.9499 32.5228 24.1214 31.3512L21.293 28.5228C21.6835 28.1322 22.3167 28.1322 22.7072 28.5228L19.8788 31.3512ZM8.54883 16.4999C8.54883 18.7546 9.4445 20.9169 11.0388 22.5112L13.8672 19.6828C13.0231 18.8386 12.5488 17.6937 12.5488 16.4999H8.54883ZM11.0388 10.4886C9.4445 12.0829 8.54883 14.2452 8.54883 16.4999H12.5488C12.5488 15.3061 13.0231 14.1611 13.8672 13.317L11.0388 10.4886ZM17.0501 7.99858C14.7954 7.99858 12.6331 8.89425 11.0388 10.4886L13.8672 13.317C14.7114 12.4728 15.8563 11.9986 17.0501 11.9986V7.99858ZM23.0614 10.4886C21.4671 8.89425 19.3048 7.99858 17.0501 7.99858V11.9986C18.2439 11.9986 19.3889 12.4728 20.233 13.317L23.0614 10.4886ZM23.4143 10.8414L23.0614 10.4886L20.233 13.317L20.5859 13.6699L23.4143 10.8414ZM20.9386 10.4887L20.5859 10.8414L23.4143 13.6699L23.7671 13.3171L20.9386 10.4887ZM23.6964 8.64545C22.6649 9.07286 21.7276 9.69943 20.9384 10.489L23.7673 13.3169C24.1853 12.8988 24.6816 12.567 25.2276 12.3408L23.6964 8.64545ZM24.1214 31.3512L32.9614 22.5112L30.133 19.6828L21.293 28.5228L24.1214 31.3512ZM11.0388 22.5112L19.8788 31.3512L22.7072 28.5228L13.8672 19.6828L11.0388 22.5112Z" fill="white" mask="url(#path-2-inside-1)"/>
</g>
<defs>
<filter id="filter0_ddd" x="0" y="-1" width="44" height="44" filterUnits="userSpaceOnUse" color-interpolation-filters="sRGB">
<feFlood flood-opacity="0" result="BackgroundImageFix"/>
<feColorMatrix in="SourceAlpha" type="matrix" values="0 0 0 0 0 0 0 0 0 0 0 0 0 0 0 0 0 0 127 0"/>
<feOffset dy="1"/>
<feGaussianBlur stdDeviation="5"/>
<feColorMatrix type="matrix" values="0 0 0 0 0 0 0 0 0 0 0 0 0 0 0 0 0 0 0.11 0"/>
<feBlend mode="normal" in2="BackgroundImageFix" result="effect1_dropShadow"/>
<feColorMatrix in="SourceAlpha" type="matrix" values="0 0 0 0 0 0 0 0 0 0 0 0 0 0 0 0 0 0 127 0"/>
<feOffset/>
<feColorMatrix type="matrix" values="0 0 0 0 0 0 0 0 0 0 0 0 0 0 0 0 0 0 0.1 0"/>
<feBlend mode="normal" in2="effect1_dropShadow" result="effect2_dropShadow"/>
<feColorMatrix in="SourceAlpha" type="matrix" values="0 0 0 0 0 0 0 0 0 0 0 0 0 0 0 0 0 0 127 0"/>
<feOffset dy="2"/>
<feGaussianBlur stdDeviation="2"/>
<feColorMatrix type="matrix" values="0 0 0 0 0 0 0 0 0 0 0 0 0 0 0 0 0 0 0.02 0"/>
<feBlend mode="normal" in2="effect2_dropShadow" result="effect3_dropShadow"/>
<feBlend mode="normal" in="SourceGraphic" in2="effect3_dropShadow" result="shape"/>
</filter>
</defs>
</svg>
