<svg width="24" height="24" viewBox="0 0 24 24" fill="none" xmlns="http://www.w3.org/2000/svg">
<mask id="path-2-inside-1" fill="white">
<path fill-rule="evenodd" clip-rule="evenodd" d="M14.462 2.49312C15.2508 2.16628 16.0963 1.99805 16.9501 1.99805C17.804 1.99805 18.6495 2.16628 19.4383 2.49312C20.2269 2.81991 20.9435 3.29885 21.5471 3.9026C22.1508 4.50615 22.6301 5.22306 22.9569 6.01173C23.2837 6.80054 23.4519 7.64602 23.4519 8.49987C23.4519 9.35372 23.2837 10.1992 22.9569 10.988C22.6301 11.7768 22.1511 12.4934 21.5472 13.097L12.7072 21.937C12.3167 22.3275 11.6835 22.3275 11.293 21.937L2.45301 13.097C1.23378 11.8778 0.548828 10.2241 0.548828 8.49987C0.548828 6.77562 1.23378 5.12199 2.45301 3.90277C3.67224 2.68354 5.32587 1.99858 7.05012 1.99858C8.77437 1.99858 10.428 2.68354 11.6472 3.90277L12.0001 4.25566L12.3528 3.90293C12.9564 3.29911 13.6732 2.81994 14.462 2.49312Z"/>
</mask>
<path fill-rule="evenodd" clip-rule="evenodd" d="M14.462 2.49312C15.2508 2.16628 16.0963 1.99805 16.9501 1.99805C17.804 1.99805 18.6495 2.16628 19.4383 2.49312C20.2269 2.81991 20.9435 3.29885 21.5471 3.9026C22.1508 4.50615 22.6301 5.22306 22.9569 6.01173C23.2837 6.80054 23.4519 7.64602 23.4519 8.49987C23.4519 9.35372 23.2837 10.1992 22.9569 10.988C22.6301 11.7768 22.1511 12.4934 21.5472 13.097L12.7072 21.937C12.3167 22.3275 11.6835 22.3275 11.293 21.937L2.45301 13.097C1.23378 11.8778 0.548828 10.2241 0.548828 8.49987C0.548828 6.77562 1.23378 5.12199 2.45301 3.90277C3.67224 2.68354 5.32587 1.99858 7.05012 1.99858C8.77437 1.99858 10.428 2.68354 11.6472 3.90277L12.0001 4.25566L12.3528 3.90293C12.9564 3.29911 13.6732 2.81994 14.462 2.49312Z" fill="#EF5D54"/>
<path d="M14.462 2.49312L13.6964 0.645452V0.645453L14.462 2.49312ZM19.4383 2.49312L20.2038 0.645453V0.645453L19.4383 2.49312ZM21.5471 3.9026L20.1326 5.31658L20.1331 5.31704L21.5471 3.9026ZM22.9569 6.01173L21.1092 6.77731L21.1092 6.77731L22.9569 6.01173ZM22.9569 10.988L21.1092 10.2224L21.1092 10.2224L22.9569 10.988ZM21.5472 13.097L20.1333 11.6825L20.133 11.6828L21.5472 13.097ZM11.293 21.937L12.7072 20.5228L11.293 21.937ZM2.45301 13.097L1.0388 14.5112H1.0388L2.45301 13.097ZM11.6472 3.90277L10.233 5.31698L10.233 5.31698L11.6472 3.90277ZM12.0001 4.25566L10.5859 5.66987C11.367 6.45092 12.6333 6.45092 13.4143 5.66987L12.0001 4.25566ZM12.3528 3.90293L13.7671 5.31715L13.7673 5.31687L12.3528 3.90293ZM16.9501 -0.00195312C15.8335 -0.00195312 14.7279 0.218038 13.6964 0.645452L15.2276 4.34079C15.7737 4.11451 16.359 3.99805 16.9501 3.99805V-0.00195312ZM20.2038 0.645453C19.1723 0.218038 18.0667 -0.00195312 16.9501 -0.00195312V3.99805C17.5412 3.99805 18.1266 4.11451 18.6727 4.34079L20.2038 0.645453ZM22.9615 2.48862C22.1722 1.6991 21.2352 1.07279 20.2038 0.645453L18.6727 4.34079C19.2187 4.56703 19.7148 4.89861 20.1326 5.31658L22.9615 2.48862ZM24.8045 5.24614C24.3771 4.21467 23.7505 3.27731 22.961 2.48816L20.1331 5.31704C20.5512 5.73499 20.883 6.23144 21.1092 6.77731L24.8045 5.24614ZM25.4519 8.49987C25.4519 7.3833 25.232 6.27767 24.8045 5.24614L21.1092 6.77731C21.3355 7.32341 21.4519 7.90875 21.4519 8.49987H25.4519ZM24.8045 11.7536C25.232 10.7221 25.4519 9.61645 25.4519 8.49987H21.4519C21.4519 9.091 21.3355 9.67633 21.1092 10.2224L24.8045 11.7536ZM22.9612 14.5115C23.7508 13.7222 24.3772 12.785 24.8045 11.7536L21.1092 10.2224C20.8829 10.7685 20.5513 11.2646 20.1333 11.6825L22.9612 14.5115ZM9.8788 23.3512C11.0504 24.5228 12.9499 24.5228 14.1214 23.3512L11.293 20.5228C11.6835 20.1322 12.3167 20.1322 12.7072 20.5228L9.8788 23.3512ZM-1.45117 8.49987C-1.45117 10.7546 -0.555503 12.9169 1.0388 14.5112L3.86723 11.6828C3.02307 10.8386 2.54883 9.69369 2.54883 8.49987H-1.45117ZM1.0388 2.48855C-0.555502 4.08285 -1.45117 6.24519 -1.45117 8.49987H2.54883C2.54883 7.30606 3.02307 6.16114 3.86723 5.31698L1.0388 2.48855ZM7.05012 -0.00141835C4.79544 -0.00141835 2.6331 0.894251 1.0388 2.48855L3.86723 5.31698C4.71138 4.47282 5.8563 3.99858 7.05012 3.99858V-0.00141835ZM13.0614 2.48855C11.4671 0.894251 9.3048 -0.00141835 7.05012 -0.00141835V3.99858C8.24394 3.99858 9.38886 4.47282 10.233 5.31698L13.0614 2.48855ZM13.4143 2.84145L13.0614 2.48855L10.233 5.31698L10.5859 5.66987L13.4143 2.84145ZM10.9386 2.48872L10.5859 2.84145L13.4143 5.66987L13.7671 5.31715L10.9386 2.48872ZM13.6964 0.645453C12.6649 1.07286 11.7276 1.69943 10.9384 2.489L13.7673 5.31687C14.1853 4.89878 14.6816 4.56702 15.2276 4.34079L13.6964 0.645453ZM14.1214 23.3512L22.9614 14.5112L20.133 11.6828L11.293 20.5228L14.1214 23.3512ZM1.0388 14.5112L9.8788 23.3512L12.7072 20.5228L3.86723 11.6828L1.0388 14.5112Z" fill="white" mask="url(#path-2-inside-1)"/>
</svg>
