<svg width="16" height="16" viewBox="0 0 16 16" fill="none" xmlns="http://www.w3.org/2000/svg">
<path fill-rule="evenodd" clip-rule="evenodd" d="M8.54808 14.5954C10.029 13.4506 14 10.0191 14 6.13636C14 4.5089 13.3679 2.94809 12.2426 1.7973C11.1174 0.646508 9.5913 0 8 0C6.4087 0 4.88258 0.646508 3.75736 1.7973C2.63214 2.94809 2 4.5089 2 6.13636C2 10.0191 5.97098 13.4506 7.45192 14.5954C7.77733 14.8469 8.22267 14.8469 8.54808 14.5954ZM11 6C11 7.65685 9.65685 9 8 9C6.34315 9 5 7.65685 5 6C5 4.34315 6.34315 3 8 3C9.65685 3 11 4.34315 11 6Z" fill="#676767"/>
</svg>
