<svg width="27" height="25" viewBox="0 0 27 25" fill="none" xmlns="http://www.w3.org/2000/svg">
<path d="M13.4939 17.4686C15.4112 17.4686 17.2679 17.2147 18.9667 16.7311L16.5034 14.8332L14.6831 13.4309V15.0387C14.2948 15.0629 13.8944 15.087 13.4818 15.087C7.46292 15.087 2.37843 12.1736 2.37843 8.74033C2.37843 5.30706 7.46292 2.39362 13.4818 2.39362C17.3285 2.39362 20.787 3.57834 22.7771 5.33124L24.6944 3.84429C24.1483 3.32447 23.5173 2.82882 22.7892 2.39362C20.3016 0.846228 16.9888 0 13.4939 0C9.98697 0 6.67416 0.846228 4.17438 2.38153C1.48045 4.03772 0 6.28627 0 8.72824C0 11.1702 1.48045 13.4309 4.17438 15.075C6.67416 16.6223 9.98697 17.4686 13.4939 17.4686ZM22.8135 9.93714C20.3016 8.40184 16.9888 7.55561 13.4939 7.55561C11.5766 7.55561 9.72 7.80948 8.02112 8.29304L10.4724 10.191L12.2926 11.5933V9.9734C12.6809 9.94923 13.0813 9.92505 13.4939 9.92505C19.5128 9.92505 24.5973 12.8385 24.5973 16.2718C24.5973 19.7171 19.5128 22.6185 13.4939 22.6185C9.64719 22.6185 6.18876 21.4338 4.19865 19.6809L2.28135 21.1678C2.82742 21.6876 3.45843 22.1833 4.18652 22.6185C6.69843 24.1538 10.0112 25 13.5061 25C17.013 25 20.3137 24.1538 22.8256 22.6185C25.5196 20.9744 27 18.7137 27 16.2718C26.9879 13.8298 25.5074 11.5812 22.8135 9.93714Z" fill="#EF5D54"/>
</svg>
